<svg width="312" height="125" viewBox="0 0 312 125" fill="none" xmlns="http://www.w3.org/2000/svg">
<path d="M35.1245 36.3542L20.7245 58.3382H3.28512L17.4355 36.3542H35.1245Z" fill="#E86527"/>
<path d="M31.8394 14.9837H14.6554L0 36.9677H17.184L31.8394 14.9837Z" fill="#E86527"/>
<path d="M49.0224 15.4483L42.1997 25.5562H57.1085L36.1354 58.6589H69.4906L71.5123 48.0461H57.1123L72.5194 25.0483L74.5411 15.4483H49.0224Z" fill="#0E1318"/>
<path d="M78.936 15.4483L76.9142 25.0483H82.9786L76.152 58.6589H89.2925L97.8835 15.4483H78.936Z" fill="#0E1318"/>
<path d="M210.187 50.3376C214.408 44.5609 216.546 37.5238 216.252 30.3754C216.252 24.816 214.736 20.7754 211.956 17.9914C208.674 14.9606 204.123 13.6973 197.805 13.6973C188.708 13.6973 181.38 16.9824 176.832 23.2973C172.576 29.0589 170.435 36.1102 170.768 43.2653C170.768 48.8246 172.284 52.8653 175.064 55.6493C178.349 58.6819 182.897 59.9453 189.214 59.9453C198.311 59.6928 205.639 56.6602 210.187 50.3453V50.3376ZM184.16 42.2515C184.218 38.2468 185.079 34.2945 186.69 30.6278C188.964 26.5843 191.997 24.3101 195.787 24.3101C200.587 24.3101 202.61 26.5843 202.61 31.8941C202.61 38.9693 199.325 50.088 190.986 50.088C186.438 49.8355 184.164 47.304 184.164 42.2544L184.16 42.2515Z" fill="#0E1318"/>
<path d="M245.289 14.1898C241.254 13.996 237.233 14.7929 233.577 16.5108C229.921 18.2287 226.742 20.8154 224.316 24.0451C220.087 30.0098 217.954 37.2077 218.251 44.5133C218.251 54.3686 223.051 59.927 231.644 59.927C237.456 59.927 242.763 56.6419 246.044 51.841L246.803 50.5776V58.4112H256.403L264.236 17.2224C258.097 15.3152 251.717 14.2941 245.289 14.1898ZM248.073 33.647C246.557 40.9747 240.997 49.0608 236.196 49.0608C232.406 49.0608 232.153 45.0173 232.153 41.9856C232.087 38.049 232.953 34.1526 234.68 30.6144C235.482 28.8056 236.793 27.2692 238.453 26.1924C240.113 25.1156 242.05 24.545 244.029 24.5501C245.865 24.6079 247.671 25.0377 249.336 25.8134H249.588L248.073 33.647Z" fill="#0E1318"/>
<path d="M170.087 0L156.692 2.27424C156.659 4.38884 156.49 6.49913 156.186 8.592L148.353 48.264C147.594 52.56 147.848 55.848 149.616 57.6134C151.132 59.3827 153.406 60.1402 157.2 60.1402C159.869 60.2356 162.53 59.8063 165.034 58.8768L166.803 49.5274H164.778C163.515 49.5274 162.757 49.2746 162.504 48.769C161.999 48.264 161.746 46.9997 162.252 44.9789C162.252 44.7264 169.579 7.0752 169.579 6.3168C169.832 4.04352 170.087 1.26336 170.087 0Z" fill="#0E1318"/>
<path d="M309.726 40.2499L311.494 32.4163C311.788 30.492 311.956 28.5506 311.999 26.6045C311.999 18.5184 307.703 13.9699 299.615 13.9699C296.662 14.0171 293.765 14.7769 291.169 16.1848C288.573 17.5927 286.356 19.6069 284.706 22.056L284.201 23.0669L283.696 15.4829H273.59L273.338 22.8106L266.263 58.6963H279.402L283.192 39.9974C283.941 36.1334 285.585 32.4986 287.992 29.3846C290.267 26.0995 293.046 24.3312 295.32 24.3312C298.858 24.3312 299.364 27.3638 299.364 29.3846C299.307 30.9945 299.139 32.5984 298.859 34.1846L296.584 46.5686V46.8211C296.079 50.6112 295.321 53.6438 294.815 58.1923V58.4448H307.956C308.159 52.7242 309.006 47.0448 310.482 41.5142C309.473 41.0083 309.726 40.5024 309.726 40.2499Z" fill="#0E1318"/>
<path d="M145.253 28.4976C145.253 18.6422 140.453 13.0838 131.86 13.0838C129.217 13.0648 126.61 13.7011 124.273 14.9358C121.936 16.1705 119.942 17.965 118.468 20.159L117.963 20.9174L117.458 14.5997H106.338L106.086 21.6749L96.2304 72.4666L95.472 76.0042L94.967 76.7626L108.612 74.4883C109.117 71.9616 111.898 59.0746 111.898 58.8211V58.3162H112.403C114.31 58.7346 116.263 58.9043 118.214 58.8211C122.249 59.015 126.27 58.2182 129.926 56.5003C133.582 54.7824 136.762 52.1956 139.188 48.9658C143.352 42.9698 145.478 35.7941 145.253 28.4976ZM119.225 48.4608C117.389 48.403 115.584 47.9732 113.918 47.1974H113.666L115.182 39.3638C115.931 35.4998 117.575 31.865 119.982 28.751C122.256 25.4659 125.035 23.6976 127.309 23.6976C131.1 23.6976 131.353 27.7411 131.353 30.7728C131.353 39.3648 127.563 48.4608 119.223 48.4608H119.225Z" fill="#0E1318"/>
<path d="M13.88 113.54C14.6267 113.74 15.2 114.127 15.6 114.7C16 115.26 16.2 115.933 16.2 116.72C16.2 118 15.7467 118.993 14.84 119.7C13.9467 120.407 12.72 120.76 11.16 120.76H5.9C5.51333 120.76 5.21333 120.653 5 120.44C4.8 120.213 4.71333 119.9 4.74 119.5L5.66 107.88C5.68667 107.493 5.81333 107.193 6.04 106.98C6.28 106.767 6.59333 106.66 6.98 106.66H11.74C13.2467 106.66 14.3933 106.973 15.18 107.6C15.98 108.227 16.38 109.08 16.38 110.16C16.38 110.96 16.1667 111.647 15.74 112.22C15.3267 112.793 14.7067 113.233 13.88 113.54ZM8.12 108.66L7.8 112.6H11.12C12.0533 112.6 12.7467 112.433 13.2 112.1C13.6533 111.753 13.88 111.22 13.88 110.5C13.88 109.273 13.04 108.66 11.36 108.66H8.12ZM10.98 118.76C11.9133 118.76 12.6133 118.587 13.08 118.24C13.5467 117.893 13.78 117.347 13.78 116.6C13.78 115.933 13.5667 115.433 13.14 115.1C12.7267 114.767 12.0867 114.6 11.22 114.6H7.64L7.32 118.76H10.98Z" fill="#EA6528"/>
<path d="M26.7923 110.78C27.179 110.78 27.4723 110.887 27.6723 111.1C27.8857 111.3 27.9723 111.587 27.9323 111.96L27.3123 119.74C27.299 120.073 27.1657 120.347 26.9123 120.56C26.659 120.773 26.3457 120.88 25.9723 120.88C25.6257 120.88 25.3523 120.78 25.1523 120.58C24.9523 120.38 24.859 120.113 24.8723 119.78L24.9123 119.4C24.5657 119.88 24.119 120.253 23.5723 120.52C23.0257 120.787 22.4257 120.92 21.7723 120.92C20.7057 120.92 19.8923 120.627 19.3323 120.04C18.7723 119.453 18.4923 118.6 18.4923 117.48C18.4923 117.213 18.499 117.007 18.5123 116.86L18.8923 111.96C18.919 111.587 19.0523 111.3 19.2923 111.1C19.5457 110.887 19.8657 110.78 20.2523 110.78C20.6257 110.78 20.9123 110.887 21.1123 111.1C21.3257 111.3 21.419 111.587 21.3923 111.96L21.0123 116.7C20.999 116.78 20.9923 116.9 20.9923 117.06C20.9923 118.313 21.5657 118.94 22.7123 118.94C23.4057 118.94 23.9523 118.72 24.3523 118.28C24.7657 117.827 25.0057 117.207 25.0723 116.42L25.4323 111.96C25.4723 111.587 25.6123 111.3 25.8523 111.1C26.1057 110.887 26.419 110.78 26.7923 110.78Z" fill="#EA6528"/>
<path d="M33.6544 120.92C33.041 120.92 32.4277 120.847 31.8144 120.7C31.2144 120.553 30.681 120.347 30.2144 120.08C29.7744 119.853 29.5544 119.513 29.5544 119.06C29.5544 118.807 29.6344 118.587 29.7944 118.4C29.9544 118.213 30.1544 118.12 30.3944 118.12C30.5544 118.12 30.7277 118.173 30.9144 118.28C31.8344 118.813 32.8144 119.08 33.8544 119.08C35.0677 119.08 35.6744 118.733 35.6744 118.04C35.6744 117.707 35.5077 117.453 35.1744 117.28C34.841 117.093 34.321 116.9 33.6144 116.7C32.9077 116.5 32.3277 116.307 31.8744 116.12C31.4344 115.92 31.0544 115.633 30.7344 115.26C30.4144 114.873 30.261 114.373 30.2744 113.76C30.301 112.84 30.701 112.107 31.4744 111.56C32.2477 111.013 33.2744 110.74 34.5544 110.74C35.0877 110.74 35.6344 110.82 36.1944 110.98C36.7677 111.127 37.2344 111.327 37.5944 111.58C37.9544 111.807 38.1344 112.12 38.1344 112.52C38.1344 112.773 38.0544 112.993 37.8944 113.18C37.7477 113.353 37.561 113.44 37.3344 113.44C37.1744 113.44 37.001 113.387 36.8144 113.28C35.9877 112.8 35.1744 112.56 34.3744 112.56C33.7877 112.56 33.3344 112.653 33.0144 112.84C32.7077 113.027 32.5544 113.3 32.5544 113.66C32.5544 113.993 32.721 114.253 33.0544 114.44C33.3877 114.613 33.9077 114.8 34.6144 115C35.321 115.2 35.8944 115.4 36.3344 115.6C36.7744 115.787 37.1544 116.067 37.4744 116.44C37.7944 116.813 37.9544 117.3 37.9544 117.9C37.9544 118.847 37.5744 119.587 36.8144 120.12C36.0544 120.653 35.001 120.92 33.6544 120.92Z" fill="#EA6528"/>
<path d="M41.2014 120.88C40.8414 120.88 40.5481 120.78 40.3214 120.58C40.0947 120.38 39.9947 120.08 40.0214 119.68L40.6614 111.94C40.6881 111.553 40.8281 111.267 41.0814 111.08C41.3347 110.88 41.6414 110.78 42.0014 110.78C42.3614 110.78 42.6481 110.88 42.8614 111.08C43.0881 111.267 43.1881 111.553 43.1614 111.94L42.5214 119.68C42.4947 120.08 42.3547 120.38 42.1014 120.58C41.8481 120.78 41.5481 120.88 41.2014 120.88ZM42.2414 109C41.7881 109 41.4281 108.88 41.1614 108.64C40.8947 108.387 40.7614 108.06 40.7614 107.66C40.7614 107.26 40.8947 106.94 41.1614 106.7C41.4281 106.46 41.7881 106.34 42.2414 106.34C42.6814 106.34 43.0347 106.46 43.3014 106.7C43.5814 106.94 43.7214 107.26 43.7214 107.66C43.7214 108.06 43.5881 108.387 43.3214 108.64C43.0547 108.88 42.6947 109 42.2414 109Z" fill="#EA6528"/>
<path d="M51.5595 110.74C52.6529 110.74 53.4795 111.04 54.0395 111.64C54.6129 112.227 54.8995 113.1 54.8995 114.26C54.8995 114.513 54.8929 114.707 54.8795 114.84L54.4795 119.68C54.4529 120.053 54.3195 120.347 54.0795 120.56C53.8395 120.773 53.5329 120.88 53.1595 120.88C52.7729 120.88 52.4729 120.773 52.2595 120.56C52.0462 120.347 51.9529 120.053 51.9795 119.68L52.3795 114.94C52.4862 113.46 51.8995 112.72 50.6195 112.72C49.8862 112.72 49.3129 112.94 48.8995 113.38C48.4862 113.82 48.2462 114.433 48.1795 115.22L47.7995 119.68C47.7729 120.053 47.6395 120.347 47.3995 120.56C47.1595 120.773 46.8529 120.88 46.4795 120.88C46.0929 120.88 45.7929 120.773 45.5795 120.56C45.3795 120.347 45.2862 120.053 45.2995 119.68L45.9395 111.92C45.9529 111.573 46.0862 111.3 46.3395 111.1C46.5929 110.887 46.9062 110.78 47.2795 110.78C47.6395 110.78 47.9195 110.88 48.1195 111.08C48.3195 111.28 48.3995 111.547 48.3595 111.88L48.3395 112.26C48.6729 111.78 49.1195 111.407 49.6795 111.14C50.2395 110.873 50.8662 110.74 51.5595 110.74Z" fill="#EA6528"/>
<path d="M66.1588 115.44C66.1588 115.72 66.0788 115.94 65.9187 116.1C65.7721 116.247 65.5788 116.32 65.3388 116.32H59.3988C59.4388 117.2 59.6854 117.867 60.1388 118.32C60.6054 118.773 61.2588 119 62.0988 119C62.5654 119 62.9854 118.947 63.3587 118.84C63.7454 118.72 64.1254 118.547 64.4987 118.32C64.6721 118.227 64.8387 118.18 64.9987 118.18C65.2254 118.18 65.3988 118.267 65.5188 118.44C65.6521 118.6 65.7188 118.8 65.7188 119.04C65.7188 119.427 65.5521 119.747 65.2188 120C64.8587 120.267 64.3788 120.487 63.7788 120.66C63.1921 120.833 62.5788 120.92 61.9388 120.92C60.9388 120.92 60.0654 120.727 59.3187 120.34C58.5721 119.94 57.9921 119.38 57.5788 118.66C57.1787 117.94 56.9787 117.1 56.9787 116.14C56.9787 115.1 57.1854 114.173 57.5988 113.36C58.0121 112.533 58.5921 111.893 59.3387 111.44C60.0854 110.973 60.9388 110.74 61.8988 110.74C63.2588 110.74 64.3054 111.147 65.0387 111.96C65.7854 112.773 66.1588 113.933 66.1588 115.44ZM61.9987 112.5C60.5854 112.5 59.7454 113.327 59.4787 114.98H64.0387C64.0521 114.167 63.8787 113.553 63.5187 113.14C63.1587 112.713 62.6521 112.5 61.9987 112.5Z" fill="#EA6528"/>
<path d="M71.5638 120.92C70.9504 120.92 70.3371 120.847 69.7237 120.7C69.1237 120.553 68.5904 120.347 68.1237 120.08C67.6837 119.853 67.4638 119.513 67.4638 119.06C67.4638 118.807 67.5437 118.587 67.7038 118.4C67.8638 118.213 68.0638 118.12 68.3037 118.12C68.4638 118.12 68.6371 118.173 68.8238 118.28C69.7438 118.813 70.7237 119.08 71.7637 119.08C72.9771 119.08 73.5837 118.733 73.5837 118.04C73.5837 117.707 73.4171 117.453 73.0837 117.28C72.7504 117.093 72.2304 116.9 71.5238 116.7C70.8171 116.5 70.2371 116.307 69.7838 116.12C69.3438 115.92 68.9638 115.633 68.6438 115.26C68.3238 114.873 68.1704 114.373 68.1838 113.76C68.2104 112.84 68.6104 112.107 69.3838 111.56C70.1571 111.013 71.1838 110.74 72.4638 110.74C72.9971 110.74 73.5438 110.82 74.1038 110.98C74.6771 111.127 75.1438 111.327 75.5038 111.58C75.8638 111.807 76.0438 112.12 76.0438 112.52C76.0438 112.773 75.9638 112.993 75.8037 113.18C75.6571 113.353 75.4704 113.44 75.2438 113.44C75.0837 113.44 74.9104 113.387 74.7237 113.28C73.8971 112.8 73.0838 112.56 72.2838 112.56C71.6971 112.56 71.2438 112.653 70.9238 112.84C70.6171 113.027 70.4638 113.3 70.4638 113.66C70.4638 113.993 70.6304 114.253 70.9638 114.44C71.2971 114.613 71.8171 114.8 72.5238 115C73.2304 115.2 73.8037 115.4 74.2438 115.6C74.6838 115.787 75.0638 116.067 75.3838 116.44C75.7038 116.813 75.8638 117.3 75.8638 117.9C75.8638 118.847 75.4837 119.587 74.7237 120.12C73.9637 120.653 72.9104 120.92 71.5638 120.92Z" fill="#EA6528"/>
<path d="M81.4708 120.92C80.8574 120.92 80.2441 120.847 79.6308 120.7C79.0308 120.553 78.4975 120.347 78.0308 120.08C77.5908 119.853 77.3708 119.513 77.3708 119.06C77.3708 118.807 77.4508 118.587 77.6108 118.4C77.7708 118.213 77.9708 118.12 78.2108 118.12C78.3708 118.12 78.5441 118.173 78.7308 118.28C79.6508 118.813 80.6308 119.08 81.6708 119.08C82.8841 119.08 83.4908 118.733 83.4908 118.04C83.4908 117.707 83.3241 117.453 82.9908 117.28C82.6574 117.093 82.1375 116.9 81.4308 116.7C80.7241 116.5 80.1441 116.307 79.6908 116.12C79.2508 115.92 78.8708 115.633 78.5508 115.26C78.2308 114.873 78.0774 114.373 78.0908 113.76C78.1174 112.84 78.5174 112.107 79.2908 111.56C80.0641 111.013 81.0908 110.74 82.3708 110.74C82.9041 110.74 83.4508 110.82 84.0108 110.98C84.5841 111.127 85.0508 111.327 85.4108 111.58C85.7708 111.807 85.9508 112.12 85.9508 112.52C85.9508 112.773 85.8708 112.993 85.7108 113.18C85.5641 113.353 85.3774 113.44 85.1508 113.44C84.9908 113.44 84.8175 113.387 84.6308 113.28C83.8041 112.8 82.9908 112.56 82.1908 112.56C81.6041 112.56 81.1508 112.653 80.8308 112.84C80.5241 113.027 80.3708 113.3 80.3708 113.66C80.3708 113.993 80.5374 114.253 80.8708 114.44C81.2041 114.613 81.7241 114.8 82.4308 115C83.1375 115.2 83.7108 115.4 84.1508 115.6C84.5908 115.787 84.9708 116.067 85.2908 116.44C85.6108 116.813 85.7708 117.3 85.7708 117.9C85.7708 118.847 85.3908 119.587 84.6308 120.12C83.8708 120.653 82.8174 120.92 81.4708 120.92Z" fill="#EA6528"/>
<path d="M102.068 118.98C102.254 119.18 102.348 119.407 102.348 119.66C102.348 119.98 102.214 120.267 101.948 120.52C101.694 120.773 101.408 120.9 101.088 120.9C100.794 120.9 100.528 120.773 100.288 120.52L96.2475 116.3L95.9875 119.7C95.9608 120.073 95.8208 120.36 95.5675 120.56C95.3275 120.76 95.0275 120.86 94.6675 120.86C94.3075 120.86 94.0142 120.76 93.7875 120.56C93.5608 120.347 93.4608 120.047 93.4875 119.66L94.4275 107.72C94.4542 107.347 94.5942 107.06 94.8475 106.86C95.1008 106.66 95.4008 106.56 95.7475 106.56C96.1075 106.56 96.4008 106.667 96.6275 106.88C96.8542 107.08 96.9542 107.373 96.9275 107.76L96.3475 115.24L100.708 111.16C100.974 110.92 101.241 110.8 101.508 110.8C101.814 110.8 102.081 110.913 102.308 111.14C102.534 111.367 102.648 111.627 102.648 111.92C102.648 112.213 102.528 112.473 102.288 112.7L98.9475 115.72L102.068 118.98Z" fill="#EA6528"/>
<path d="M105.57 120.88C105.21 120.88 104.917 120.78 104.69 120.58C104.463 120.38 104.363 120.08 104.39 119.68L105.03 111.94C105.057 111.553 105.197 111.267 105.45 111.08C105.703 110.88 106.01 110.78 106.37 110.78C106.73 110.78 107.017 110.88 107.23 111.08C107.457 111.267 107.557 111.553 107.53 111.94L106.89 119.68C106.863 120.08 106.723 120.38 106.47 120.58C106.217 120.78 105.917 120.88 105.57 120.88ZM106.61 109C106.157 109 105.797 108.88 105.53 108.64C105.263 108.387 105.13 108.06 105.13 107.66C105.13 107.26 105.263 106.94 105.53 106.7C105.797 106.46 106.157 106.34 106.61 106.34C107.05 106.34 107.403 106.46 107.67 106.7C107.95 106.94 108.09 107.26 108.09 107.66C108.09 108.06 107.957 108.387 107.69 108.64C107.423 108.88 107.063 109 106.61 109Z" fill="#EA6528"/>
<path d="M120.498 120.94C119.431 120.94 118.471 120.82 117.618 120.58C116.765 120.34 116.045 120.013 115.458 119.6C115.071 119.333 114.878 118.98 114.878 118.54C114.878 118.26 114.958 118.02 115.118 117.82C115.291 117.607 115.511 117.5 115.778 117.5C115.965 117.5 116.185 117.573 116.438 117.72C116.958 118.093 117.565 118.387 118.258 118.6C118.965 118.8 119.738 118.9 120.578 118.9C121.551 118.9 122.291 118.74 122.798 118.42C123.318 118.087 123.578 117.62 123.578 117.02C123.578 116.633 123.438 116.313 123.158 116.06C122.891 115.793 122.551 115.58 122.138 115.42C121.725 115.247 121.165 115.06 120.458 114.86C119.485 114.58 118.685 114.307 118.058 114.04C117.445 113.76 116.918 113.353 116.478 112.82C116.038 112.287 115.818 111.587 115.818 110.72C115.818 109.867 116.045 109.12 116.498 108.48C116.965 107.84 117.625 107.347 118.478 107C119.331 106.653 120.325 106.48 121.458 106.48C122.431 106.48 123.338 106.613 124.178 106.88C125.018 107.147 125.705 107.507 126.238 107.96C126.531 108.2 126.678 108.493 126.678 108.84C126.678 109.12 126.585 109.367 126.398 109.58C126.225 109.78 125.998 109.88 125.718 109.88C125.478 109.88 125.225 109.793 124.958 109.62C124.518 109.3 123.985 109.04 123.358 108.84C122.731 108.627 122.078 108.52 121.398 108.52C120.438 108.52 119.691 108.7 119.158 109.06C118.638 109.407 118.378 109.893 118.378 110.52C118.378 110.933 118.518 111.28 118.798 111.56C119.091 111.84 119.445 112.06 119.858 112.22C120.271 112.38 120.858 112.573 121.618 112.8C122.591 113.08 123.378 113.353 123.978 113.62C124.578 113.873 125.091 114.26 125.518 114.78C125.945 115.287 126.158 115.947 126.158 116.76C126.158 118.067 125.658 119.093 124.658 119.84C123.658 120.573 122.271 120.94 120.498 120.94Z" fill="#EA6528"/>
<path d="M136.712 110.78C137.099 110.78 137.392 110.887 137.592 111.1C137.805 111.3 137.892 111.587 137.852 111.96L137.232 119.74C137.219 120.073 137.085 120.347 136.832 120.56C136.579 120.773 136.265 120.88 135.892 120.88C135.545 120.88 135.272 120.78 135.072 120.58C134.872 120.38 134.779 120.113 134.792 119.78L134.832 119.4C134.485 119.88 134.039 120.253 133.492 120.52C132.945 120.787 132.345 120.92 131.692 120.92C130.625 120.92 129.812 120.627 129.252 120.04C128.692 119.453 128.412 118.6 128.412 117.48C128.412 117.213 128.419 117.007 128.432 116.86L128.812 111.96C128.839 111.587 128.972 111.3 129.212 111.1C129.465 110.887 129.785 110.78 130.172 110.78C130.545 110.78 130.832 110.887 131.032 111.1C131.245 111.3 131.339 111.587 131.312 111.96L130.932 116.7C130.919 116.78 130.912 116.9 130.912 117.06C130.912 118.313 131.485 118.94 132.632 118.94C133.325 118.94 133.872 118.72 134.272 118.28C134.685 117.827 134.925 117.207 134.992 116.42L135.352 111.96C135.392 111.587 135.532 111.3 135.772 111.1C136.025 110.887 136.339 110.78 136.712 110.78Z" fill="#EA6528"/>
<path d="M146.294 110.74C147.387 110.74 148.214 111.04 148.774 111.64C149.347 112.227 149.634 113.1 149.634 114.26C149.634 114.513 149.627 114.707 149.614 114.84L149.214 119.68C149.187 120.053 149.054 120.347 148.814 120.56C148.574 120.773 148.267 120.88 147.894 120.88C147.507 120.88 147.207 120.773 146.994 120.56C146.781 120.347 146.687 120.053 146.714 119.68L147.114 114.94C147.221 113.46 146.634 112.72 145.354 112.72C144.621 112.72 144.047 112.94 143.634 113.38C143.221 113.82 142.981 114.433 142.914 115.22L142.534 119.68C142.507 120.053 142.374 120.347 142.134 120.56C141.894 120.773 141.587 120.88 141.214 120.88C140.827 120.88 140.527 120.773 140.314 120.56C140.114 120.347 140.021 120.053 140.034 119.68L140.674 111.92C140.687 111.573 140.821 111.3 141.074 111.1C141.327 110.887 141.641 110.78 142.014 110.78C142.374 110.78 142.654 110.88 142.854 111.08C143.054 111.28 143.134 111.547 143.094 111.88L143.074 112.26C143.407 111.78 143.854 111.407 144.414 111.14C144.974 110.873 145.601 110.74 146.294 110.74Z" fill="#EA6528"/>
<path d="M160.893 115.44C160.893 115.72 160.813 115.94 160.653 116.1C160.506 116.247 160.313 116.32 160.073 116.32H154.133C154.173 117.2 154.42 117.867 154.873 118.32C155.34 118.773 155.993 119 156.833 119C157.3 119 157.72 118.947 158.093 118.84C158.48 118.72 158.86 118.547 159.233 118.32C159.406 118.227 159.573 118.18 159.733 118.18C159.96 118.18 160.133 118.267 160.253 118.44C160.386 118.6 160.453 118.8 160.453 119.04C160.453 119.427 160.286 119.747 159.953 120C159.593 120.267 159.113 120.487 158.513 120.66C157.926 120.833 157.313 120.92 156.673 120.92C155.673 120.92 154.8 120.727 154.053 120.34C153.306 119.94 152.726 119.38 152.313 118.66C151.913 117.94 151.713 117.1 151.713 116.14C151.713 115.1 151.92 114.173 152.333 113.36C152.746 112.533 153.326 111.893 154.073 111.44C154.82 110.973 155.673 110.74 156.633 110.74C157.993 110.74 159.04 111.147 159.773 111.96C160.52 112.773 160.893 113.933 160.893 115.44ZM156.733 112.5C155.32 112.5 154.48 113.327 154.213 114.98H158.773C158.786 114.167 158.613 113.553 158.253 113.14C157.893 112.713 157.386 112.5 156.733 112.5Z" fill="#EA6528"/>
<path d="M163.978 117.88C164.431 117.88 164.785 118.033 165.038 118.34C165.291 118.633 165.418 119.067 165.418 119.64C165.418 120.293 165.278 120.92 164.998 121.52C164.718 122.12 164.331 122.653 163.838 123.12C163.665 123.293 163.471 123.38 163.258 123.38C163.071 123.38 162.911 123.313 162.778 123.18C162.645 123.06 162.578 122.913 162.578 122.74C162.578 122.567 162.658 122.4 162.818 122.24C163.245 121.813 163.545 121.327 163.718 120.78C163.331 120.727 163.031 120.58 162.818 120.34C162.605 120.087 162.498 119.767 162.498 119.38C162.498 118.9 162.638 118.533 162.918 118.28C163.198 118.013 163.551 117.88 163.978 117.88Z" fill="#EA6528"/>
<path d="M183.509 106.66C183.829 106.66 184.082 106.753 184.269 106.94C184.455 107.127 184.549 107.36 184.549 107.64C184.549 107.973 184.415 108.313 184.149 108.66L176.289 118.7H182.729C183.102 118.7 183.382 118.787 183.569 118.96C183.755 119.12 183.849 119.353 183.849 119.66C183.849 120.393 183.429 120.76 182.589 120.76H174.049C173.715 120.76 173.455 120.667 173.269 120.48C173.095 120.293 173.009 120.053 173.009 119.76C173.009 119.4 173.135 119.067 173.389 118.76L181.269 108.72H175.089C174.715 108.72 174.435 108.64 174.249 108.48C174.062 108.32 173.969 108.087 173.969 107.78C173.969 107.393 174.069 107.113 174.269 106.94C174.482 106.753 174.802 106.66 175.229 106.66H183.509Z" fill="#EA6528"/>
<path d="M186.96 120.88C186.6 120.88 186.307 120.78 186.08 120.58C185.853 120.38 185.753 120.08 185.78 119.68L186.42 111.94C186.447 111.553 186.587 111.267 186.84 111.08C187.093 110.88 187.4 110.78 187.76 110.78C188.12 110.78 188.407 110.88 188.62 111.08C188.847 111.267 188.947 111.553 188.92 111.94L188.28 119.68C188.253 120.08 188.113 120.38 187.86 120.58C187.607 120.78 187.307 120.88 186.96 120.88ZM188 109C187.547 109 187.187 108.88 186.92 108.64C186.653 108.387 186.52 108.06 186.52 107.66C186.52 107.26 186.653 106.94 186.92 106.7C187.187 106.46 187.547 106.34 188 106.34C188.44 106.34 188.793 106.46 189.06 106.7C189.34 106.94 189.48 107.26 189.48 107.66C189.48 108.06 189.347 108.387 189.08 108.64C188.813 108.88 188.453 109 188 109Z" fill="#EA6528"/>
<path d="M197.158 110.74C197.985 110.74 198.711 110.933 199.338 111.32C199.965 111.693 200.451 112.24 200.798 112.96C201.158 113.667 201.338 114.493 201.338 115.44C201.338 116.52 201.145 117.473 200.758 118.3C200.371 119.127 199.825 119.773 199.118 120.24C198.411 120.693 197.598 120.92 196.678 120.92C195.985 120.92 195.371 120.78 194.838 120.5C194.318 120.22 193.905 119.82 193.598 119.3L193.278 123.4C193.251 123.733 193.111 124 192.858 124.2C192.618 124.4 192.318 124.5 191.958 124.5C191.585 124.5 191.285 124.393 191.058 124.18C190.845 123.98 190.751 123.707 190.778 123.36L191.678 111.96C191.705 111.587 191.831 111.3 192.058 111.1C192.298 110.887 192.605 110.78 192.978 110.78C193.351 110.78 193.638 110.887 193.838 111.1C194.051 111.3 194.151 111.587 194.138 111.96L194.118 112.24C194.438 111.76 194.865 111.393 195.398 111.14C195.931 110.873 196.518 110.74 197.158 110.74ZM196.238 118.98C197.051 118.98 197.685 118.68 198.138 118.08C198.605 117.467 198.838 116.633 198.838 115.58C198.838 114.66 198.618 113.947 198.178 113.44C197.751 112.92 197.151 112.66 196.378 112.66C195.578 112.66 194.951 112.967 194.498 113.58C194.045 114.193 193.818 115.02 193.818 116.06C193.818 117.02 194.025 117.747 194.438 118.24C194.851 118.733 195.451 118.98 196.238 118.98Z" fill="#EA6528"/>
<path d="M204.45 120.88C204.09 120.88 203.797 120.78 203.57 120.58C203.343 120.38 203.243 120.08 203.27 119.68L204.23 107.72C204.257 107.333 204.397 107.047 204.65 106.86C204.903 106.66 205.203 106.56 205.55 106.56C205.91 106.56 206.203 106.66 206.43 106.86C206.657 107.047 206.757 107.333 206.73 107.72L205.77 119.68C205.743 120.08 205.603 120.38 205.35 120.58C205.097 120.78 204.797 120.88 204.45 120.88Z" fill="#EA6528"/>
<path d="M213.248 120.92C212.248 120.92 211.375 120.727 210.628 120.34C209.895 119.94 209.328 119.38 208.928 118.66C208.528 117.927 208.328 117.08 208.328 116.12C208.328 115.027 208.535 114.073 208.948 113.26C209.375 112.447 209.968 111.827 210.728 111.4C211.501 110.96 212.395 110.74 213.408 110.74C214.408 110.74 215.275 110.94 216.008 111.34C216.755 111.727 217.328 112.287 217.728 113.02C218.128 113.74 218.328 114.58 218.328 115.54C218.328 116.633 218.115 117.587 217.688 118.4C217.275 119.213 216.681 119.84 215.908 120.28C215.148 120.707 214.261 120.92 213.248 120.92ZM213.248 118.98C214.101 118.98 214.741 118.66 215.168 118.02C215.608 117.367 215.828 116.513 215.828 115.46C215.828 114.54 215.621 113.847 215.208 113.38C214.808 112.9 214.215 112.66 213.428 112.66C212.575 112.66 211.928 112.987 211.488 113.64C211.048 114.28 210.828 115.127 210.828 116.18C210.828 118.047 211.635 118.98 213.248 118.98Z" fill="#EA6528"/>
<path d="M224.992 110.74C226.312 110.74 227.299 111.04 227.952 111.64C228.605 112.24 228.932 113.147 228.932 114.36C228.932 114.613 228.925 114.807 228.912 114.94L228.532 119.72C228.505 120.093 228.379 120.38 228.152 120.58C227.939 120.78 227.645 120.88 227.272 120.88C226.925 120.88 226.645 120.773 226.432 120.56C226.232 120.333 226.145 120.047 226.172 119.7L226.192 119.32C225.925 119.827 225.552 120.22 225.072 120.5C224.592 120.78 224.045 120.92 223.432 120.92C222.792 120.92 222.212 120.8 221.692 120.56C221.185 120.307 220.785 119.967 220.492 119.54C220.199 119.1 220.052 118.607 220.052 118.06C220.052 117.313 220.239 116.72 220.612 116.28C220.999 115.827 221.612 115.5 222.452 115.3C223.292 115.087 224.412 114.98 225.812 114.98H226.532L226.552 114.6C226.605 113.933 226.479 113.44 226.172 113.12C225.865 112.8 225.379 112.64 224.712 112.64C223.925 112.64 223.025 112.9 222.012 113.42C221.839 113.5 221.672 113.54 221.512 113.54C221.272 113.54 221.072 113.46 220.912 113.3C220.752 113.127 220.672 112.92 220.672 112.68C220.672 112.507 220.725 112.333 220.832 112.16C220.939 111.973 221.092 111.82 221.292 111.7C221.772 111.407 222.339 111.173 222.992 111C223.645 110.827 224.312 110.74 224.992 110.74ZM224.072 119.12C224.699 119.12 225.225 118.9 225.652 118.46C226.092 118.007 226.339 117.433 226.392 116.74L226.432 116.3H225.872C225.019 116.3 224.345 116.347 223.852 116.44C223.372 116.533 223.025 116.693 222.812 116.92C222.599 117.133 222.492 117.427 222.492 117.8C222.492 118.2 222.632 118.52 222.912 118.76C223.205 119 223.592 119.12 224.072 119.12Z" fill="#EA6528"/>
<path d="M237.513 110.74C238.606 110.74 239.433 111.04 239.993 111.64C240.566 112.227 240.853 113.1 240.853 114.26C240.853 114.513 240.846 114.707 240.833 114.84L240.433 119.68C240.406 120.053 240.273 120.347 240.033 120.56C239.793 120.773 239.486 120.88 239.113 120.88C238.726 120.88 238.426 120.773 238.213 120.56C237.999 120.347 237.906 120.053 237.933 119.68L238.333 114.94C238.439 113.46 237.853 112.72 236.573 112.72C235.839 112.72 235.266 112.94 234.853 113.38C234.439 113.82 234.199 114.433 234.133 115.22L233.753 119.68C233.726 120.053 233.593 120.347 233.353 120.56C233.113 120.773 232.806 120.88 232.433 120.88C232.046 120.88 231.746 120.773 231.533 120.56C231.333 120.347 231.239 120.053 231.253 119.68L231.893 111.92C231.906 111.573 232.039 111.3 232.293 111.1C232.546 110.887 232.859 110.78 233.233 110.78C233.593 110.78 233.873 110.88 234.073 111.08C234.273 111.28 234.353 111.547 234.313 111.88L234.293 112.26C234.626 111.78 235.073 111.407 235.633 111.14C236.193 110.873 236.819 110.74 237.513 110.74Z" fill="#EA6528"/>
<path d="M255.462 120.94C254.155 120.94 253.015 120.673 252.042 120.14C251.082 119.593 250.342 118.813 249.822 117.8C249.302 116.787 249.042 115.593 249.042 114.22C249.042 112.673 249.335 111.313 249.922 110.14C250.508 108.967 251.342 108.067 252.422 107.44C253.502 106.8 254.762 106.48 256.202 106.48C257.135 106.48 257.988 106.607 258.762 106.86C259.548 107.1 260.195 107.42 260.702 107.82C261.088 108.073 261.282 108.413 261.282 108.84C261.282 109.133 261.188 109.387 261.002 109.6C260.828 109.8 260.602 109.9 260.322 109.9C260.082 109.9 259.862 109.827 259.662 109.68C258.702 108.947 257.575 108.58 256.282 108.58C254.828 108.58 253.695 109.087 252.882 110.1C252.068 111.1 251.662 112.48 251.662 114.24C251.662 115.72 252.002 116.86 252.682 117.66C253.375 118.447 254.355 118.84 255.622 118.84C256.768 118.84 257.895 118.473 259.002 117.74C259.228 117.607 259.442 117.54 259.642 117.54C259.895 117.54 260.102 117.633 260.262 117.82C260.422 118.007 260.502 118.233 260.502 118.5C260.502 118.9 260.328 119.233 259.982 119.5C259.475 119.927 258.822 120.273 258.022 120.54C257.235 120.807 256.382 120.94 255.462 120.94Z" fill="#EA6528"/>
<path d="M268.796 110.74C269.89 110.74 270.716 111.04 271.276 111.64C271.85 112.227 272.136 113.1 272.136 114.26C272.136 114.513 272.13 114.707 272.116 114.84L271.716 119.68C271.69 120.053 271.556 120.347 271.316 120.56C271.076 120.773 270.77 120.88 270.396 120.88C270.01 120.88 269.71 120.773 269.496 120.56C269.283 120.347 269.19 120.053 269.216 119.68L269.616 114.94C269.723 113.46 269.136 112.72 267.856 112.72C267.123 112.72 266.55 112.94 266.136 113.38C265.723 113.82 265.483 114.433 265.416 115.22L265.036 119.68C265.023 120.053 264.89 120.347 264.636 120.56C264.396 120.773 264.09 120.88 263.716 120.88C263.33 120.88 263.03 120.773 262.816 120.56C262.603 120.347 262.51 120.053 262.536 119.68L263.496 107.7C263.51 107.353 263.643 107.08 263.896 106.88C264.15 106.667 264.47 106.56 264.856 106.56C265.216 106.56 265.496 106.66 265.696 106.86C265.91 107.06 266.01 107.327 265.996 107.66L265.636 112.18C265.983 111.713 266.43 111.36 266.976 111.12C267.523 110.867 268.13 110.74 268.796 110.74Z" fill="#EA6528"/>
<path d="M282.895 110.78C283.282 110.78 283.575 110.887 283.775 111.1C283.989 111.3 284.075 111.587 284.035 111.96L283.415 119.74C283.402 120.073 283.269 120.347 283.015 120.56C282.762 120.773 282.449 120.88 282.075 120.88C281.729 120.88 281.455 120.78 281.255 120.58C281.055 120.38 280.962 120.113 280.975 119.78L281.015 119.4C280.669 119.88 280.222 120.253 279.675 120.52C279.129 120.787 278.529 120.92 277.875 120.92C276.809 120.92 275.995 120.627 275.435 120.04C274.875 119.453 274.595 118.6 274.595 117.48C274.595 117.213 274.602 117.007 274.615 116.86L274.995 111.96C275.022 111.587 275.155 111.3 275.395 111.1C275.649 110.887 275.969 110.78 276.355 110.78C276.729 110.78 277.015 110.887 277.215 111.1C277.429 111.3 277.522 111.587 277.495 111.96L277.115 116.7C277.102 116.78 277.095 116.9 277.095 117.06C277.095 118.313 277.669 118.94 278.815 118.94C279.509 118.94 280.055 118.72 280.455 118.28C280.869 117.827 281.109 117.207 281.175 116.42L281.535 111.96C281.575 111.587 281.715 111.3 281.955 111.1C282.209 110.887 282.522 110.78 282.895 110.78Z" fill="#EA6528"/>
<path d="M292.477 110.74C293.571 110.74 294.397 111.04 294.957 111.64C295.531 112.227 295.817 113.1 295.817 114.26C295.817 114.513 295.811 114.707 295.797 114.84L295.397 119.68C295.371 120.053 295.237 120.347 294.997 120.56C294.758 120.773 294.451 120.88 294.077 120.88C293.691 120.88 293.391 120.773 293.177 120.56C292.964 120.347 292.871 120.053 292.897 119.68L293.297 114.94C293.404 113.46 292.817 112.72 291.537 112.72C290.804 112.72 290.231 112.94 289.817 113.38C289.404 113.82 289.164 114.433 289.097 115.22L288.717 119.68C288.691 120.053 288.557 120.347 288.317 120.56C288.077 120.773 287.771 120.88 287.397 120.88C287.011 120.88 286.711 120.773 286.497 120.56C286.297 120.347 286.204 120.053 286.217 119.68L286.857 111.92C286.871 111.573 287.004 111.3 287.257 111.1C287.511 110.887 287.824 110.78 288.197 110.78C288.557 110.78 288.837 110.88 289.037 111.08C289.237 111.28 289.318 111.547 289.277 111.88L289.257 112.26C289.591 111.78 290.037 111.407 290.597 111.14C291.157 110.873 291.784 110.74 292.477 110.74Z" fill="#EA6528"/>
<path d="M307.077 115.44C307.077 115.72 306.997 115.94 306.837 116.1C306.69 116.247 306.497 116.32 306.257 116.32H300.317C300.357 117.2 300.603 117.867 301.057 118.32C301.523 118.773 302.177 119 303.017 119C303.483 119 303.903 118.947 304.277 118.84C304.663 118.72 305.043 118.547 305.417 118.32C305.59 118.227 305.757 118.18 305.917 118.18C306.143 118.18 306.317 118.267 306.437 118.44C306.57 118.6 306.637 118.8 306.637 119.04C306.637 119.427 306.47 119.747 306.137 120C305.777 120.267 305.297 120.487 304.697 120.66C304.11 120.833 303.497 120.92 302.857 120.92C301.857 120.92 300.983 120.727 300.237 120.34C299.49 119.94 298.91 119.38 298.497 118.66C298.097 117.94 297.897 117.1 297.897 116.14C297.897 115.1 298.103 114.173 298.517 113.36C298.93 112.533 299.51 111.893 300.257 111.44C301.003 110.973 301.857 110.74 302.817 110.74C304.177 110.74 305.223 111.147 305.957 111.96C306.703 112.773 307.077 113.933 307.077 115.44ZM302.917 112.5C301.503 112.5 300.663 113.327 300.397 114.98H304.957C304.97 114.167 304.797 113.553 304.437 113.14C304.077 112.713 303.57 112.5 302.917 112.5Z" fill="#EA6528"/>
</svg>
